<svg width="381" height="577" viewBox="0 0 381 577" fill="none" xmlns="http://www.w3.org/2000/svg">
<path d="M284.99 438.134L290.254 441.096L289.525 442.391L287.613 441.315L284.57 446.724L283.135 445.916L286.178 440.508L284.261 439.429L284.99 438.134ZM287.534 448.391L291.305 441.687L292.745 442.497L288.974 449.201L287.534 448.391ZM296.412 448.407L300.375 446.79L301.646 447.505L297.875 454.209L296.44 453.401L298.954 448.932L295.255 450.464L294.638 446.529L292.134 450.979L290.694 450.169L294.466 443.465L295.761 444.194L296.412 448.407ZM301.761 454.697L305.351 456.716L304.626 458.007L299.595 455.177L303.367 448.473L308.299 451.248L307.57 452.543L304.078 450.578L303.323 451.92L306.049 453.453L305.323 454.743L302.597 453.21L301.761 454.697Z" fill="white"/>
<path d="M284.99 438.134L285.588 437.07L284.524 436.472L283.926 437.536L284.99 438.134ZM290.254 441.096L291.317 441.694L291.916 440.63L290.852 440.032L290.254 441.096ZM289.525 442.391L288.927 443.454L289.99 444.053L290.589 442.989L289.525 442.391ZM287.613 441.315L288.211 440.251L287.148 439.653L286.549 440.717L287.613 441.315ZM284.57 446.724L283.972 447.788L285.035 448.386L285.634 447.322L284.57 446.724ZM283.135 445.916L282.071 445.318L281.473 446.382L282.536 446.98L283.135 445.916ZM286.178 440.508L287.242 441.106L287.84 440.042L286.776 439.444L286.178 440.508ZM284.261 439.429L283.197 438.831L282.599 439.895L283.663 440.493L284.261 439.429ZM284.391 439.198L289.655 442.16L290.852 440.032L285.588 437.07L284.391 439.198ZM289.19 440.497L288.461 441.792L290.589 442.989L291.317 441.694L289.19 440.497ZM290.124 441.327L288.211 440.251L287.015 442.379L288.927 443.454L290.124 441.327ZM286.549 440.717L283.506 446.125L285.634 447.322L288.677 441.913L286.549 440.717ZM285.169 445.66L283.733 444.853L282.536 446.98L283.972 447.788L285.169 445.66ZM284.199 446.515L287.242 441.106L285.114 439.909L282.071 445.318L284.199 446.515ZM286.776 439.444L284.86 438.365L283.663 440.493L285.579 441.571L286.776 439.444ZM285.325 440.028L286.053 438.733L283.926 437.536L283.197 438.831L285.325 440.028ZM287.534 448.391L286.47 447.793L285.872 448.857L286.936 449.455L287.534 448.391ZM291.305 441.687L291.904 440.624L290.84 440.025L290.242 441.089L291.305 441.687ZM292.745 442.497L293.809 443.096L294.408 442.032L293.344 441.434L292.745 442.497ZM288.974 449.201L288.375 450.265L289.439 450.864L290.038 449.8L288.974 449.201ZM288.598 448.99L292.369 442.286L290.242 441.089L286.47 447.793L288.598 448.99ZM290.707 442.751L292.147 443.561L293.344 441.434L291.904 440.624L290.707 442.751ZM291.682 441.899L287.91 448.603L290.038 449.8L293.809 443.096L291.682 441.899ZM289.572 448.138L288.132 447.327L286.936 449.455L288.375 450.265L289.572 448.138ZM296.412 448.407L295.206 448.594L295.442 450.121L296.874 449.537L296.412 448.407ZM300.375 446.79L300.973 445.726L300.459 445.437L299.914 445.66L300.375 446.79ZM301.646 447.505L302.71 448.104L303.309 447.04L302.245 446.441L301.646 447.505ZM297.875 454.209L297.276 455.273L298.34 455.871L298.939 454.807L297.875 454.209ZM296.44 453.401L295.376 452.803L294.777 453.867L295.841 454.465L296.44 453.401ZM298.954 448.932L300.018 449.531L301.749 446.454L298.487 447.805L298.954 448.932ZM295.255 450.464L294.049 450.653L294.289 452.185L295.722 451.592L295.255 450.464ZM294.638 446.529L295.844 446.34L295.299 442.865L293.574 445.93L294.638 446.529ZM292.134 450.979L291.536 452.043L292.599 452.642L293.198 451.578L292.134 450.979ZM290.694 450.169L289.63 449.571L289.032 450.635L290.096 451.233L290.694 450.169ZM294.466 443.465L295.064 442.402L294 441.803L293.402 442.867L294.466 443.465ZM295.761 444.194L296.967 444.007L296.876 443.421L296.359 443.13L295.761 444.194ZM296.874 449.537L300.836 447.92L299.914 445.66L295.951 447.277L296.874 449.537ZM299.776 447.853L301.048 448.569L302.245 446.441L300.973 445.726L299.776 447.853ZM300.583 446.907L296.811 453.61L298.939 454.807L302.71 448.104L300.583 446.907ZM298.473 453.145L297.038 452.338L295.841 454.465L297.276 455.273L298.473 453.145ZM297.504 454L300.018 449.531L297.89 448.334L295.376 452.803L297.504 454ZM298.487 447.805L294.788 449.336L295.722 451.592L299.421 450.06L298.487 447.805ZM296.461 450.275L295.844 446.34L293.432 446.718L294.049 450.653L296.461 450.275ZM293.574 445.93L291.07 450.381L293.198 451.578L295.702 447.127L293.574 445.93ZM292.733 449.915L291.293 449.105L290.096 451.233L291.536 452.043L292.733 449.915ZM291.758 450.768L295.529 444.064L293.402 442.867L289.63 449.571L291.758 450.768ZM293.867 444.529L295.162 445.258L296.359 443.13L295.064 442.402L293.867 444.529ZM294.554 444.38L295.206 448.594L297.619 448.22L296.967 444.007L294.554 444.38ZM301.761 454.697L300.697 454.098L300.099 455.162L301.163 455.76L301.761 454.697ZM305.351 456.716L306.415 457.315L307.014 456.251L305.95 455.653L305.351 456.716ZM304.626 458.007L304.027 459.07L305.091 459.669L305.689 458.605L304.626 458.007ZM299.595 455.177L298.532 454.578L297.933 455.642L298.997 456.241L299.595 455.177ZM303.367 448.473L303.965 447.409L302.901 446.811L302.303 447.874L303.367 448.473ZM308.299 451.248L309.363 451.846L309.961 450.782L308.897 450.184L308.299 451.248ZM307.57 452.543L306.972 453.606L308.036 454.205L308.634 453.141L307.57 452.543ZM304.078 450.578L304.677 449.514L303.613 448.916L303.014 449.979L304.078 450.578ZM303.323 451.92L302.259 451.321L301.661 452.385L302.725 452.983L303.323 451.92ZM306.049 453.453L307.113 454.051L307.711 452.988L306.647 452.389L306.049 453.453ZM305.323 454.743L304.724 455.807L305.788 456.405L306.387 455.342L305.323 454.743ZM302.597 453.21L303.196 452.146L302.132 451.548L301.534 452.611L302.597 453.21ZM301.163 455.76L304.753 457.78L305.95 455.653L302.36 453.633L301.163 455.76ZM304.288 456.118L303.562 457.408L305.689 458.605L306.415 457.315L304.288 456.118ZM305.224 456.943L300.194 454.113L298.997 456.241L304.027 459.07L305.224 456.943ZM300.659 455.775L304.431 449.071L302.303 447.874L298.532 454.578L300.659 455.775ZM302.768 449.537L307.7 452.311L308.897 450.184L303.965 447.409L302.768 449.537ZM307.235 450.649L306.506 451.944L308.634 453.141L309.363 451.846L307.235 450.649ZM308.169 451.479L304.677 449.514L303.48 451.642L306.972 453.606L308.169 451.479ZM303.014 449.979L302.259 451.321L304.387 452.518L305.142 451.176L303.014 449.979ZM302.725 452.983L305.45 454.517L306.647 452.389L303.922 450.856L302.725 452.983ZM304.985 452.854L304.259 454.145L306.387 455.342L307.113 454.051L304.985 452.854ZM305.921 453.679L303.196 452.146L301.999 454.274L304.724 455.807L305.921 453.679ZM301.534 452.611L300.697 454.098L302.825 455.295L303.661 453.808L301.534 452.611Z" fill="black"/>
<path d="M334.819 467.473C364.437 412.706 380.036 351.458 380.223 289.195C380.411 226.932 365.181 165.592 335.893 110.647" stroke="#7E5155" stroke-width="0.610299" stroke-miterlimit="10" stroke-linecap="round" stroke-linejoin="round" stroke-dasharray="4.27 4.27"/>
<mask id="path-4-inside-1_2512:30969" fill="white">
<path d="M250.001 421.605C253.559 423.529 258.012 422.208 259.845 418.603C280.257 378.451 290.985 334.038 291.121 288.928C291.256 243.818 280.796 199.341 260.626 159.068C258.815 155.451 254.37 154.104 250.801 156.006L15.098 281.645C9.94403 284.392 9.92181 291.771 15.0591 294.549L250.001 421.605Z"/>
</mask>
<path d="M250.001 421.605C253.559 423.529 258.012 422.208 259.845 418.603C280.257 378.451 290.985 334.038 291.121 288.928C291.256 243.818 280.796 199.341 260.626 159.068C258.815 155.451 254.37 154.104 250.801 156.006L15.098 281.645C9.94403 284.392 9.92181 291.771 15.0591 294.549L250.001 421.605Z" fill="url(#paint0_linear_2512:30969)" stroke="#FF5461" stroke-width="2.44119" mask="url(#path-4-inside-1_2512:30969)"/>
<path opacity="0.8" d="M345.439 104.361L338.394 104.182L341.761 110.372L345.439 104.361ZM345.439 474.202L341.798 468.168L338.393 474.338L345.439 474.202ZM19.6847 281.573L19.3931 281.037L19.6847 281.573ZM19.6461 294.418L19.3512 294.953L19.6461 294.418ZM340.322 106.45L19.3931 281.037L19.9764 282.109L340.905 107.522L340.322 106.45ZM19.3512 294.953L340.335 472.082L340.924 471.014L19.9409 293.884L19.3512 294.953ZM19.3931 281.037C13.8886 284.031 13.8649 291.925 19.3512 294.953L19.9409 293.884C15.2987 291.322 15.3188 284.643 19.9764 282.109L19.3931 281.037Z" fill="url(#paint1_linear_2512:30969)"/>
<mask id="path-6-inside-2_2512:30969" fill="white">
<path d="M170.014 378.348C173.572 380.272 178.029 378.953 179.82 375.326C193.115 348.396 200.096 318.752 200.187 288.654C200.277 258.556 193.475 228.87 180.342 201.861C178.573 198.223 174.124 196.877 170.555 198.78L15.098 281.644C9.94408 284.392 9.92186 291.771 15.0592 294.549L170.014 378.348Z"/>
</mask>
<path d="M170.014 378.348C173.572 380.272 178.029 378.953 179.82 375.326C193.115 348.396 200.096 318.752 200.187 288.654C200.277 258.556 193.475 228.87 180.342 201.861C178.573 198.223 174.124 196.877 170.555 198.78L15.098 281.644C9.94408 284.392 9.92186 291.771 15.0592 294.549L170.014 378.348Z" fill="url(#paint2_linear_2512:30969)" stroke="#FF5461" stroke-width="2.44119" mask="url(#path-6-inside-2_2512:30969)"/>
<mask id="path-7-inside-3_2512:30969" fill="white">
<path d="M90.027 335.091C93.5848 337.015 98.0537 335.7 99.728 332.018C105.949 318.337 109.207 303.465 109.253 288.38C109.298 273.296 106.13 258.404 99.9909 244.686C98.3388 240.994 93.8779 239.652 90.3086 241.554L15.0981 281.644C9.94415 284.392 9.92193 291.771 15.0592 294.549L90.027 335.091Z"/>
</mask>
<path d="M90.027 335.091C93.5848 337.015 98.0537 335.7 99.728 332.018C105.949 318.337 109.207 303.465 109.253 288.38C109.298 273.296 106.13 258.404 99.9909 244.686C98.3388 240.994 93.8779 239.652 90.3086 241.554L15.0981 281.644C9.94415 284.392 9.92193 291.771 15.0592 294.549L90.027 335.091Z" fill="url(#paint3_linear_2512:30969)" stroke="#FF5461" stroke-width="2.44119" mask="url(#path-7-inside-3_2512:30969)"/>
<g style="mix-blend-mode:color-dodge" clip-path="url(#clip0_2512:30969)">
<path d="M192.865 263.038C207.358 263.038 219.108 251.289 219.108 236.796C219.108 222.302 207.358 210.553 192.865 210.553C178.371 210.553 166.622 222.302 166.622 236.796C166.622 251.289 178.371 263.038 192.865 263.038Z" fill="url(#paint4_radial_2512:30969)"/>
</g>
<g style="mix-blend-mode:color-dodge" clip-path="url(#clip1_2512:30969)">
<path d="M109.253 316.135C123.746 316.135 135.495 304.386 135.495 289.892C135.495 275.398 123.746 263.649 109.253 263.649C94.7591 263.649 83.0098 275.398 83.0098 289.892C83.0098 304.386 94.7591 316.135 109.253 316.135Z" fill="url(#paint5_radial_2512:30969)"/>
</g>
<g style="mix-blend-mode:color-dodge" clip-path="url(#clip2_2512:30969)">
<path d="M278.305 394.864C292.799 394.864 304.548 383.114 304.548 368.621C304.548 354.127 292.799 342.378 278.305 342.378C263.812 342.378 252.062 354.127 252.062 368.621C252.062 383.114 263.812 394.864 278.305 394.864Z" fill="url(#paint6_radial_2512:30969)"/>
</g>
<path d="M40.6953 286.291C40.6953 286.213 40.6953 286.174 40.696 286.141C40.7315 284.352 42.1733 282.91 43.9624 282.874C43.9955 282.874 44.0347 282.874 44.113 282.874H48.6699C48.7482 282.874 48.7873 282.874 48.8205 282.874C50.6095 282.91 52.0513 284.352 52.0869 286.141C52.0876 286.174 52.0876 286.213 52.0876 286.291V286.291C52.0876 286.409 52.0876 286.467 52.0866 286.517C52.0332 289.201 49.8705 291.363 47.1869 291.417C47.1372 291.418 47.0785 291.418 46.961 291.418H45.8218C45.7044 291.418 45.6456 291.418 45.596 291.417C42.9124 291.363 40.7496 289.201 40.6963 286.517C40.6953 286.467 40.6953 286.409 40.6953 286.291V286.291Z" stroke="white" stroke-width="1.01716"/>
<path d="M49.2401 282.162V281.45C49.2401 279.877 47.9649 278.602 46.392 278.602V278.602C44.8191 278.602 43.5439 279.877 43.5439 281.45V282.162" stroke="white" stroke-width="1.01716" stroke-linecap="round"/>
<ellipse cx="46.3918" cy="287.146" rx="1.42403" ry="1.42403" fill="white"/>
<path d="M129.8 286.291C129.8 286.213 129.8 286.174 129.8 286.141C129.836 284.352 131.278 282.91 133.067 282.874C133.1 282.874 133.139 282.874 133.217 282.874H137.774C137.853 282.874 137.892 282.874 137.925 282.874C139.714 282.91 141.156 284.352 141.191 286.141C141.192 286.174 141.192 286.213 141.192 286.291V286.291C141.192 286.409 141.192 286.467 141.191 286.517C141.138 289.201 138.975 291.363 136.291 291.417C136.242 291.418 136.183 291.418 136.066 291.418H134.926C134.809 291.418 134.75 291.418 134.7 291.417C132.017 291.363 129.854 289.201 129.801 286.517C129.8 286.467 129.8 286.409 129.8 286.291V286.291Z" stroke="white" stroke-width="1.01716"/>
<path d="M138.345 282.162V281.45C138.345 279.877 137.069 278.602 135.496 278.602V278.602C133.924 278.602 132.648 279.877 132.648 281.45V282.162" stroke="white" stroke-width="1.01716" stroke-linecap="round"/>
<ellipse cx="135.496" cy="287.146" rx="1.42403" ry="1.42403" fill="white"/>
<path d="M220.123 286.291C220.123 286.213 220.123 286.174 220.124 286.141C220.159 284.352 221.601 282.91 223.39 282.874C223.423 282.874 223.462 282.874 223.541 282.874H228.098C228.176 282.874 228.215 282.874 228.248 282.874C230.037 282.91 231.479 284.352 231.515 286.141C231.515 286.174 231.515 286.213 231.515 286.291V286.291C231.515 286.409 231.515 286.467 231.514 286.517C231.461 289.201 229.298 291.363 226.615 291.417C226.565 291.418 226.506 291.418 226.389 291.418H225.25C225.132 291.418 225.073 291.418 225.024 291.417C222.34 291.363 220.177 289.201 220.124 286.517C220.123 286.467 220.123 286.409 220.123 286.291V286.291Z" stroke="white" stroke-width="1.01716"/>
<path d="M228.668 282.162V281.45C228.668 279.877 227.393 278.602 225.82 278.602V278.602C224.247 278.602 222.972 279.877 222.972 281.45V282.162" stroke="white" stroke-width="1.01716" stroke-linecap="round"/>
<ellipse cx="225.82" cy="287.146" rx="1.42403" ry="1.42403" fill="white"/>
<path d="M61.5936 282.635H57.5342V276.652H58.8192V281.483H61.5936V282.635ZM63.7755 278.25C63.4028 278.628 63.2165 279.094 63.2165 279.648C63.2165 280.198 63.4028 280.663 63.7755 281.041C64.1482 281.419 64.6015 281.608 65.1356 281.608C65.6724 281.608 66.1271 281.419 66.4998 281.041C66.8725 280.663 67.0588 280.198 67.0588 279.648C67.0588 279.094 66.8725 278.628 66.4998 278.25C66.1271 277.869 65.6724 277.678 65.1356 277.678C64.6015 277.678 64.1482 277.869 63.7755 278.25ZM62.8285 281.85C62.2027 281.239 61.8898 280.503 61.8898 279.643C61.8898 278.784 62.2027 278.05 62.8285 277.441C63.457 276.832 64.2261 276.527 65.1356 276.527C66.0478 276.527 66.8169 276.832 67.4427 277.441C68.0712 278.05 68.3855 278.784 68.3855 279.643C68.3855 280.503 68.0712 281.239 67.4427 281.85C66.8169 282.46 66.0478 282.764 65.1356 282.764C64.2261 282.764 63.457 282.46 62.8285 281.85ZM72.4907 276.527C72.805 276.527 73.104 276.569 73.3877 276.652C73.6714 276.733 73.9036 276.832 74.0844 276.948C74.268 277.065 74.4293 277.182 74.5684 277.299C74.7102 277.416 74.8117 277.514 74.8729 277.595L74.9689 277.72L74.1553 278.534C74.1387 278.511 74.115 278.481 74.0844 278.442C74.0566 278.4 73.9912 278.331 73.8883 278.233C73.7882 278.136 73.6783 278.051 73.5588 277.979C73.4392 277.904 73.282 277.836 73.0873 277.774C72.8926 277.71 72.6938 277.678 72.4907 277.678C71.9317 277.678 71.4644 277.866 71.089 278.242C70.7135 278.617 70.5257 279.084 70.5257 279.643C70.5257 280.203 70.7135 280.67 71.089 281.045C71.4644 281.421 71.9317 281.608 72.4907 281.608C72.7077 281.608 72.9149 281.579 73.1124 281.521C73.3126 281.46 73.4781 281.389 73.6088 281.308C73.7395 281.225 73.855 281.141 73.9551 281.058C74.0552 280.974 74.1275 280.902 74.172 280.841L74.2388 280.753L75.0106 281.567C74.9883 281.6 74.9536 281.645 74.9063 281.7C74.8618 281.753 74.7603 281.849 74.6017 281.988C74.446 282.124 74.2777 282.245 74.0969 282.351C73.9189 282.454 73.6839 282.549 73.3919 282.635C73.1026 282.721 72.8022 282.764 72.4907 282.764C71.5785 282.764 70.808 282.46 70.1795 281.85C69.5537 281.239 69.2408 280.503 69.2408 279.643C69.2408 278.784 69.5537 278.05 70.1795 277.441C70.808 276.832 71.5785 276.527 72.4907 276.527ZM77.3177 276.652V279.26L79.6665 276.652H81.1601L78.9406 279.13L81.3311 282.635H79.8376L78.0853 280.073L77.3177 280.924V282.635H76.0327V276.652H77.3177ZM56.9377 286.652H61.6353V287.808H59.9289V292.635H58.6482V287.808H56.9377V286.652ZM63.7755 288.25C63.4028 288.628 63.2165 289.094 63.2165 289.648C63.2165 290.198 63.4028 290.663 63.7755 291.041C64.1482 291.419 64.6015 291.608 65.1356 291.608C65.6724 291.608 66.1271 291.419 66.4998 291.041C66.8725 290.663 67.0588 290.198 67.0588 289.648C67.0588 289.094 66.8725 288.628 66.4998 288.25C66.1271 287.869 65.6724 287.678 65.1356 287.678C64.6015 287.678 64.1482 287.869 63.7755 288.25ZM62.8285 291.85C62.2027 291.239 61.8898 290.503 61.8898 289.643C61.8898 288.784 62.2027 288.05 62.8285 287.441C63.457 286.832 64.2261 286.527 65.1356 286.527C66.0478 286.527 66.8169 286.832 67.4427 287.441C68.0712 288.05 68.3855 288.784 68.3855 289.643C68.3855 290.503 68.0712 291.239 67.4427 291.85C66.8169 292.46 66.0478 292.764 65.1356 292.764C64.2261 292.764 63.457 292.46 62.8285 291.85ZM70.8678 286.652V289.26L73.2167 286.652H74.7102L72.4907 289.13L74.8813 292.635H73.3877L71.6355 290.073L70.8678 290.924V292.635H69.5829V286.652H70.8678ZM76.9339 291.483H80.1379V292.635H75.6489V286.652H80.0503V287.808H76.9339V289.005H79.3661V290.157H76.9339V291.483ZM85.3904 286.652H86.6712V292.635H85.5615L82.6161 288.834V292.635H81.3311V286.652H82.445L85.3904 290.457V286.652Z" fill="white"/>
<path d="M312.889 286.292C312.889 284.966 312.889 284.303 313.191 283.817C313.353 283.557 313.572 283.338 313.832 283.176C314.317 282.874 314.98 282.874 316.306 282.874H320.863C322.189 282.874 322.852 282.874 323.338 283.176C323.598 283.338 323.817 283.557 323.979 283.817C324.281 284.303 324.281 284.966 324.281 286.292V286.292C324.281 288.281 324.281 289.276 323.828 290.004C323.585 290.394 323.256 290.723 322.866 290.965C322.138 291.418 321.144 291.418 319.154 291.418H318.015C316.026 291.418 315.031 291.418 314.303 290.965C313.913 290.723 313.584 290.394 313.342 290.004C312.889 289.276 312.889 288.281 312.889 286.292V286.292Z" stroke="white" stroke-width="1.0192"/>
<path d="M321.788 282.874L321.844 282.432C322.028 280.957 321.364 279.504 320.129 278.678V278.678C318.657 277.694 316.71 277.816 315.372 278.974L314.789 279.479" stroke="white" stroke-width="1.0192" stroke-linecap="round"/>
<ellipse cx="318.585" cy="287.146" rx="1.42403" ry="1.42403" fill="white"/>
<path d="M243.463 282.635H239.403V276.652H240.688V281.483H243.463V282.635ZM245.645 278.25C245.272 278.628 245.086 279.094 245.086 279.648C245.086 280.198 245.272 280.663 245.645 281.041C246.017 281.419 246.471 281.608 247.005 281.608C247.541 281.608 247.996 281.419 248.369 281.041C248.742 280.663 248.928 280.198 248.928 279.648C248.928 279.094 248.742 278.628 248.369 278.25C247.996 277.869 247.541 277.678 247.005 277.678C246.471 277.678 246.017 277.869 245.645 278.25ZM244.698 281.85C244.072 281.239 243.759 280.503 243.759 279.643C243.759 278.784 244.072 278.05 244.698 277.441C245.326 276.832 246.095 276.527 247.005 276.527C247.917 276.527 248.686 276.832 249.312 277.441C249.94 278.05 250.255 278.784 250.255 279.643C250.255 280.503 249.94 281.239 249.312 281.85C248.686 282.46 247.917 282.764 247.005 282.764C246.095 282.764 245.326 282.46 244.698 281.85ZM254.36 276.527C254.674 276.527 254.973 276.569 255.257 276.652C255.541 276.733 255.773 276.832 255.954 276.948C256.137 277.065 256.298 277.182 256.438 277.299C256.579 277.416 256.681 277.514 256.742 277.595L256.838 277.72L256.024 278.534C256.008 278.511 255.984 278.481 255.954 278.442C255.926 278.4 255.86 278.331 255.757 278.233C255.657 278.136 255.547 278.051 255.428 277.979C255.308 277.904 255.151 277.836 254.956 277.774C254.762 277.71 254.563 277.678 254.36 277.678C253.801 277.678 253.334 277.866 252.958 278.242C252.583 278.617 252.395 279.084 252.395 279.643C252.395 280.203 252.583 280.67 252.958 281.045C253.334 281.421 253.801 281.608 254.36 281.608C254.577 281.608 254.784 281.579 254.981 281.521C255.182 281.46 255.347 281.389 255.478 281.308C255.609 281.225 255.724 281.141 255.824 281.058C255.924 280.974 255.997 280.902 256.041 280.841L256.108 280.753L256.88 281.567C256.857 281.6 256.823 281.645 256.775 281.7C256.731 281.753 256.629 281.849 256.471 281.988C256.315 282.124 256.147 282.245 255.966 282.351C255.788 282.454 255.553 282.549 255.261 282.635C254.972 282.721 254.671 282.764 254.36 282.764C253.448 282.764 252.677 282.46 252.049 281.85C251.423 281.239 251.11 280.503 251.11 279.643C251.11 278.784 251.423 278.05 252.049 277.441C252.677 276.832 253.448 276.527 254.36 276.527ZM259.187 276.652V279.26L261.536 276.652H263.029L260.81 279.13L263.2 282.635H261.707L259.954 280.073L259.187 280.924V282.635H257.902V276.652H259.187ZM238.807 286.652H243.504V287.808H241.798V292.635H240.517V287.808H238.807V286.652ZM245.645 288.25C245.272 288.628 245.086 289.094 245.086 289.648C245.086 290.198 245.272 290.663 245.645 291.041C246.017 291.419 246.471 291.608 247.005 291.608C247.541 291.608 247.996 291.419 248.369 291.041C248.742 290.663 248.928 290.198 248.928 289.648C248.928 289.094 248.742 288.628 248.369 288.25C247.996 287.869 247.541 287.678 247.005 287.678C246.471 287.678 246.017 287.869 245.645 288.25ZM244.698 291.85C244.072 291.239 243.759 290.503 243.759 289.643C243.759 288.784 244.072 288.05 244.698 287.441C245.326 286.832 246.095 286.527 247.005 286.527C247.917 286.527 248.686 286.832 249.312 287.441C249.94 288.05 250.255 288.784 250.255 289.643C250.255 290.503 249.94 291.239 249.312 291.85C248.686 292.46 247.917 292.764 247.005 292.764C246.095 292.764 245.326 292.46 244.698 291.85ZM252.737 286.652V289.26L255.086 286.652H256.579L254.36 289.13L256.75 292.635H255.257L253.505 290.073L252.737 290.924V292.635H251.452V286.652H252.737ZM258.803 291.483H262.007V292.635H257.518V286.652H261.919V287.808H258.803V289.005H261.235V290.157H258.803V291.483ZM267.26 286.652H268.54V292.635H267.431L264.485 288.834V292.635H263.2V286.652H264.314L267.26 290.457V286.652Z" fill="white"/>
<path d="M150.697 282.635H146.638V276.652H147.923V281.483H150.697V282.635ZM152.879 278.25C152.506 278.628 152.32 279.094 152.32 279.648C152.32 280.198 152.506 280.663 152.879 281.041C153.252 281.419 153.705 281.608 154.239 281.608C154.776 281.608 155.231 281.419 155.603 281.041C155.976 280.663 156.162 280.198 156.162 279.648C156.162 279.094 155.976 278.628 155.603 278.25C155.231 277.869 154.776 277.678 154.239 277.678C153.705 277.678 153.252 277.869 152.879 278.25ZM151.932 281.85C151.306 281.239 150.993 280.503 150.993 279.643C150.993 278.784 151.306 278.05 151.932 277.441C152.561 276.832 153.33 276.527 154.239 276.527C155.151 276.527 155.92 276.832 156.546 277.441C157.175 278.05 157.489 278.784 157.489 279.643C157.489 280.503 157.175 281.239 156.546 281.85C155.92 282.46 155.151 282.764 154.239 282.764C153.33 282.764 152.561 282.46 151.932 281.85ZM161.594 276.527C161.909 276.527 162.208 276.569 162.491 276.652C162.775 276.733 163.007 276.832 163.188 276.948C163.372 277.065 163.533 277.182 163.672 277.299C163.814 277.416 163.915 277.514 163.976 277.595L164.072 277.72L163.259 278.534C163.242 278.511 163.219 278.481 163.188 278.442C163.16 278.4 163.095 278.331 162.992 278.233C162.892 278.136 162.782 278.051 162.662 277.979C162.543 277.904 162.386 277.836 162.191 277.774C161.996 277.71 161.797 277.678 161.594 277.678C161.035 277.678 160.568 277.866 160.192 278.242C159.817 278.617 159.629 279.084 159.629 279.643C159.629 280.203 159.817 280.67 160.192 281.045C160.568 281.421 161.035 281.608 161.594 281.608C161.811 281.608 162.018 281.579 162.216 281.521C162.416 281.46 162.582 281.389 162.712 281.308C162.843 281.225 162.958 281.141 163.059 281.058C163.159 280.974 163.231 280.902 163.276 280.841L163.342 280.753L164.114 281.567C164.092 281.6 164.057 281.645 164.01 281.7C163.965 281.753 163.864 281.849 163.705 281.988C163.55 282.124 163.381 282.245 163.2 282.351C163.022 282.454 162.787 282.549 162.495 282.635C162.206 282.721 161.906 282.764 161.594 282.764C160.682 282.764 159.912 282.46 159.283 281.85C158.657 281.239 158.344 280.503 158.344 279.643C158.344 278.784 158.657 278.05 159.283 277.441C159.912 276.832 160.682 276.527 161.594 276.527ZM166.421 276.652V279.26L168.77 276.652H170.264L168.044 279.13L170.435 282.635H168.941L167.189 280.073L166.421 280.924V282.635H165.136V276.652H166.421ZM146.041 286.652H150.739V287.808H149.032V292.635H147.752V287.808H146.041V286.652ZM152.879 288.25C152.506 288.628 152.32 289.094 152.32 289.648C152.32 290.198 152.506 290.663 152.879 291.041C153.252 291.419 153.705 291.608 154.239 291.608C154.776 291.608 155.231 291.419 155.603 291.041C155.976 290.663 156.162 290.198 156.162 289.648C156.162 289.094 155.976 288.628 155.603 288.25C155.231 287.869 154.776 287.678 154.239 287.678C153.705 287.678 153.252 287.869 152.879 288.25ZM151.932 291.85C151.306 291.239 150.993 290.503 150.993 289.643C150.993 288.784 151.306 288.05 151.932 287.441C152.561 286.832 153.33 286.527 154.239 286.527C155.151 286.527 155.92 286.832 156.546 287.441C157.175 288.05 157.489 288.784 157.489 289.643C157.489 290.503 157.175 291.239 156.546 291.85C155.92 292.46 155.151 292.764 154.239 292.764C153.33 292.764 152.561 292.46 151.932 291.85ZM159.971 286.652V289.26L162.32 286.652H163.814L161.594 289.13L163.985 292.635H162.491L160.739 290.073L159.971 290.924V292.635H158.686V286.652H159.971ZM166.037 291.483H169.241V292.635H164.752V286.652H169.154V287.808H166.037V289.005H168.47V290.157H166.037V291.483ZM174.494 286.652H175.775V292.635H174.665L171.72 288.834V292.635H170.435V286.652H171.549L174.494 290.457V286.652Z" fill="white"/>
<path d="M331.573 276.652H336.271V277.808H334.565V282.635H333.284V277.808H331.573V276.652ZM338.495 281.483H341.699V282.635H337.21V276.652H341.611V277.808H338.495V279.005H340.927V280.157H338.495V281.483ZM345.116 280.457L343.664 282.635H342.208L344.302 279.514L342.379 276.652H343.835L345.116 278.575L346.396 276.652H347.848L345.925 279.514L348.019 282.635H346.567L345.116 280.457ZM348.278 276.652H352.976V277.808H351.269V282.635H349.988V277.808H348.278V276.652ZM331.573 286.652H336.271V287.808H334.565V292.635H333.284V287.808H331.573V286.652ZM338.411 288.25C338.039 288.628 337.852 289.094 337.852 289.648C337.852 290.198 338.039 290.663 338.411 291.041C338.784 291.419 339.237 291.608 339.771 291.608C340.308 291.608 340.763 291.419 341.136 291.041C341.508 290.663 341.695 290.198 341.695 289.648C341.695 289.094 341.508 288.628 341.136 288.25C340.763 287.869 340.308 287.678 339.771 287.678C339.237 287.678 338.784 287.869 338.411 288.25ZM337.464 291.85C336.838 291.239 336.526 290.503 336.526 289.643C336.526 288.784 336.838 288.05 337.464 287.441C338.093 286.832 338.862 286.527 339.771 286.527C340.684 286.527 341.453 286.832 342.078 287.441C342.707 288.05 343.021 288.784 343.021 289.643C343.021 290.503 342.707 291.239 342.078 291.85C341.453 292.46 340.684 292.764 339.771 292.764C338.862 292.764 338.093 292.46 337.464 291.85ZM345.504 286.652V289.26L347.852 286.652H349.346L347.126 289.13L349.517 292.635H348.023L346.271 290.073L345.504 290.924V292.635H344.219V286.652H345.504ZM351.57 291.483H354.774V292.635H350.285V286.652H354.686V287.808H351.57V289.005H354.002V290.157H351.57V291.483ZM360.026 286.652H361.307V292.635H360.197L357.252 288.834V292.635H355.967V286.652H357.081L360.026 290.457V286.652Z" fill="white"/>
<g filter="url(#filter0_f_2512:30969)">
<circle cx="256.64" cy="423.852" r="8.84933" fill="#FF0000"/>
</g>
<circle cx="256.641" cy="423.852" r="7.01843" fill="url(#paint7_linear_2512:30969)"/>
<circle cx="256.64" cy="423.852" r="2.13605" fill="white"/>
<g filter="url(#filter1_f_2512:30969)">
<circle cx="256.64" cy="154.1" r="8.84933" fill="#FF0000"/>
</g>
<circle cx="256.641" cy="154.1" r="7.01843" fill="url(#paint8_linear_2512:30969)"/>
<circle cx="256.64" cy="154.1" r="2.13605" fill="white"/>
<g filter="url(#filter2_f_2512:30969)">
<circle cx="11.9099" cy="288.365" r="8.84933" fill="#FF0000"/>
</g>
<circle cx="11.91" cy="288.365" r="7.01843" fill="url(#paint9_linear_2512:30969)"/>
<circle cx="11.9095" cy="288.365" r="2.13605" fill="white"/>
<path d="M281.284 143.287L278.199 144.91L274.618 138.103L277.537 136.567C278.154 136.243 278.759 136.155 279.35 136.304C279.945 136.452 280.369 136.765 280.62 137.243C280.715 137.423 280.78 137.609 280.816 137.8C280.85 137.988 280.856 138.157 280.834 138.306C280.811 138.455 280.781 138.59 280.744 138.711C280.708 138.827 280.673 138.914 280.639 138.972L280.583 139.062C280.621 139.058 280.671 139.056 280.732 139.057C280.794 139.052 280.915 139.063 281.095 139.09C281.273 139.113 281.44 139.155 281.596 139.214C281.753 139.273 281.921 139.378 282.102 139.53C282.284 139.676 282.433 139.859 282.547 140.077C282.834 140.622 282.863 141.204 282.636 141.825C282.409 142.445 281.958 142.933 281.284 143.287ZM279.022 142.926L280.574 142.109C280.84 141.97 281.016 141.77 281.101 141.511C281.19 141.25 281.17 140.996 281.04 140.749C280.91 140.502 280.713 140.341 280.447 140.267C280.183 140.188 279.918 140.218 279.652 140.358L278.1 141.174L279.022 142.926ZM278.077 137.835L276.719 138.549L277.488 140.011L278.846 139.297C279.086 139.171 279.241 139.004 279.311 138.798C279.38 138.592 279.356 138.378 279.24 138.156C279.123 137.935 278.961 137.794 278.751 137.735C278.542 137.675 278.317 137.708 278.077 137.835ZM285.732 139.275L289.377 137.357L290.067 138.667L284.959 141.354L281.378 134.547L286.386 131.912L287.078 133.227L283.532 135.093L284.248 136.455L287.016 134.999L287.705 136.31L284.938 137.765L285.732 139.275ZM292.462 128.716L293.92 127.949L297.501 134.757L296.238 135.421L290.612 132.859L292.887 137.184L291.424 137.953L287.843 131.146L289.111 130.479L294.74 133.045L292.462 128.716ZM300.021 131.758L303.667 129.841L304.356 131.151L299.248 133.838L295.667 127.03L300.675 124.396L301.367 125.711L297.821 127.576L298.537 128.939L301.305 127.483L301.994 128.793L299.227 130.249L300.021 131.758ZM302.132 123.629L307.141 120.994L307.832 122.309L304.286 124.175L305.078 125.68L307.846 124.224L308.537 125.539L305.77 126.995L307.176 129.667L305.713 130.437L302.132 123.629ZM311.98 127.14L308.399 120.333L309.861 119.564L313.442 126.371L311.98 127.14ZM310.929 119.002L316.274 116.19L316.966 117.505L315.024 118.526L317.914 124.019L316.456 124.785L313.567 119.293L311.621 120.317L310.929 119.002Z" fill="white"/>
<path d="M278.199 144.91L277.118 145.479L277.687 146.559L278.767 145.991L278.199 144.91ZM274.618 138.103L274.049 137.023L272.969 137.591L273.537 138.671L274.618 138.103ZM279.35 136.304L279.052 137.488L279.056 137.489L279.35 136.304ZM280.816 137.8L282.017 137.581L282.016 137.575L280.816 137.8ZM280.639 138.972L281.676 139.615L281.685 139.601L281.693 139.587L280.639 138.972ZM280.583 139.062L279.546 138.419L278.235 140.534L280.709 140.276L280.583 139.062ZM280.732 139.057L280.725 140.277L280.772 140.277L280.819 140.274L280.732 139.057ZM281.095 139.09L280.915 140.297L280.925 140.299L280.935 140.3L281.095 139.09ZM282.102 139.53L281.318 140.465L281.327 140.473L281.337 140.481L282.102 139.53ZM279.022 142.926L277.941 143.494L278.51 144.575L279.59 144.006L279.022 142.926ZM281.101 141.511L279.946 141.117L279.943 141.127L281.101 141.511ZM280.447 140.267L280.096 141.436L280.107 141.439L280.117 141.442L280.447 140.267ZM278.1 141.174L277.532 140.094L276.452 140.662L277.02 141.743L278.1 141.174ZM276.719 138.549L276.151 137.469L275.071 138.037L275.639 139.117L276.719 138.549ZM277.488 140.011L276.408 140.58L276.976 141.66L278.057 141.092L277.488 140.011ZM280.716 142.207L277.63 143.83L278.767 145.991L281.853 144.368L280.716 142.207ZM279.279 144.342L275.698 137.535L273.537 138.671L277.118 145.479L279.279 144.342ZM275.186 139.183L278.105 137.647L276.969 135.487L274.049 137.023L275.186 139.183ZM278.105 137.647C278.497 137.442 278.794 137.423 279.052 137.488L279.649 135.121C278.724 134.887 277.812 135.044 276.969 135.487L278.105 137.647ZM279.056 137.489C279.364 137.565 279.473 137.685 279.54 137.811L281.7 136.674C281.264 135.845 280.527 135.339 279.645 135.12L279.056 137.489ZM279.54 137.811C279.581 137.889 279.604 137.959 279.617 138.025L282.016 137.575C281.956 137.258 281.849 136.957 281.7 136.674L279.54 137.811ZM279.615 138.019C279.632 138.108 279.625 138.138 279.627 138.124L282.041 138.488C282.088 138.176 282.069 137.868 282.017 137.581L279.615 138.019ZM279.627 138.124C279.612 138.223 279.594 138.297 279.578 138.349L281.909 139.073C281.968 138.883 282.011 138.687 282.041 138.488L279.627 138.124ZM279.578 138.349C279.573 138.366 279.568 138.379 279.565 138.389C279.561 138.4 279.559 138.406 279.558 138.408C279.557 138.411 279.558 138.407 279.562 138.4C279.565 138.392 279.573 138.378 279.584 138.357L281.693 139.587C281.797 139.41 281.864 139.219 281.909 139.073L279.578 138.349ZM279.601 138.329L279.546 138.419L281.621 139.705L281.676 139.615L279.601 138.329ZM280.709 140.276C280.702 140.277 280.697 140.277 280.694 140.277C280.692 140.278 280.692 140.278 280.694 140.278C280.698 140.277 280.708 140.277 280.725 140.277L280.739 137.836C280.656 137.836 280.557 137.838 280.457 137.848L280.709 140.276ZM280.819 140.274C280.796 140.276 280.778 140.276 280.767 140.276C280.756 140.276 280.748 140.276 280.745 140.276C280.74 140.276 280.743 140.276 280.758 140.277C280.787 140.28 280.838 140.286 280.915 140.297L281.274 137.883C281.114 137.859 280.862 137.824 280.644 137.839L280.819 140.274ZM280.935 140.3C281.027 140.312 281.102 140.332 281.164 140.356L282.028 138.072C281.778 137.978 281.519 137.915 281.255 137.88L280.935 140.3ZM281.164 140.356C281.155 140.352 281.165 140.355 281.193 140.372C281.222 140.39 281.263 140.419 281.318 140.465L282.886 138.594C282.64 138.388 282.353 138.195 282.028 138.072L281.164 140.356ZM281.337 140.481C281.382 140.517 281.426 140.567 281.467 140.646L283.628 139.509C283.439 139.151 283.186 138.836 282.867 138.579L281.337 140.481ZM281.467 140.646C281.58 140.86 281.609 141.081 281.49 141.405L283.782 142.244C284.118 141.327 284.088 140.383 283.628 139.509L281.467 140.646ZM281.49 141.405C281.383 141.698 281.166 141.97 280.716 142.207L281.853 144.368C282.751 143.895 283.435 143.192 283.782 142.244L281.49 141.405ZM279.59 144.006L281.142 143.19L280.006 141.029L278.453 141.846L279.59 144.006ZM281.142 143.19C281.657 142.919 282.065 142.485 282.26 141.894L279.943 141.127C279.946 141.118 279.951 141.105 279.96 141.089C279.969 141.074 279.979 141.06 279.989 141.048C280.012 141.023 280.024 141.02 280.006 141.029L281.142 143.19ZM282.257 141.905C282.455 141.322 282.404 140.721 282.12 140.181L279.96 141.317C279.955 141.309 279.94 141.275 279.936 141.222C279.932 141.17 279.941 141.131 279.946 141.117L282.257 141.905ZM282.12 140.181C281.836 139.641 281.37 139.258 280.777 139.092L280.117 141.442C280.103 141.438 280.066 141.424 280.025 141.39C279.984 141.357 279.964 141.326 279.96 141.317L282.12 140.181ZM280.798 139.098C280.199 138.918 279.605 139.003 279.084 139.277L280.221 141.438C280.237 141.43 280.225 141.439 280.189 141.443C280.172 141.445 280.154 141.445 280.136 141.443C280.118 141.442 280.105 141.439 280.096 141.436L280.798 139.098ZM279.084 139.277L277.532 140.094L278.668 142.255L280.221 141.438L279.084 139.277ZM277.02 141.743L277.941 143.494L280.102 142.358L279.18 140.606L277.02 141.743ZM277.509 136.755L276.151 137.469L277.287 139.629L278.645 138.915L277.509 136.755ZM275.639 139.117L276.408 140.58L278.569 139.443L277.799 137.981L275.639 139.117ZM278.057 141.092L279.414 140.377L278.278 138.217L276.92 138.931L278.057 141.092ZM279.414 140.377C279.86 140.143 280.275 139.76 280.468 139.187L278.154 138.409C278.177 138.34 278.214 138.284 278.249 138.246C278.282 138.211 278.3 138.205 278.278 138.217L279.414 140.377ZM280.468 139.187C280.66 138.616 280.566 138.056 280.32 137.588L278.16 138.725C278.158 138.722 278.139 138.684 278.132 138.617C278.124 138.545 278.133 138.472 278.154 138.409L280.468 139.187ZM280.32 137.588C280.074 137.12 279.665 136.726 279.086 136.561L278.417 138.908C278.352 138.89 278.287 138.856 278.233 138.809C278.181 138.764 278.161 138.727 278.16 138.725L280.32 137.588ZM279.086 136.561C278.504 136.395 277.954 136.52 277.509 136.755L278.645 138.915C278.667 138.904 278.652 138.915 278.605 138.922C278.554 138.93 278.487 138.928 278.417 138.908L279.086 136.561ZM285.732 139.275L284.651 139.843L285.22 140.924L286.3 140.355L285.732 139.275ZM289.377 137.357L290.458 136.789L289.889 135.709L288.809 136.277L289.377 137.357ZM290.067 138.667L290.635 139.748L291.715 139.179L291.147 138.099L290.067 138.667ZM284.959 141.354L283.878 141.923L284.447 143.003L285.527 142.435L284.959 141.354ZM281.378 134.547L280.809 133.467L279.729 134.035L280.297 135.115L281.378 134.547ZM286.386 131.912L287.466 131.344L286.898 130.264L285.818 130.832L286.386 131.912ZM287.078 133.227L287.646 134.308L288.726 133.739L288.158 132.659L287.078 133.227ZM283.532 135.093L282.963 134.013L281.883 134.581L282.451 135.661L283.532 135.093ZM284.248 136.455L283.168 137.023L283.736 138.104L284.817 137.535L284.248 136.455ZM287.016 134.999L288.096 134.431L287.528 133.351L286.448 133.919L287.016 134.999ZM287.705 136.31L288.273 137.39L289.354 136.822L288.785 135.741L287.705 136.31ZM284.938 137.765L284.369 136.685L283.289 137.253L283.857 138.334L284.938 137.765ZM286.3 140.355L289.946 138.437L288.809 136.277L285.163 138.195L286.3 140.355ZM288.297 137.925L288.986 139.236L291.147 138.099L290.458 136.789L288.297 137.925ZM289.498 137.587L284.39 140.274L285.527 142.435L290.635 139.748L289.498 137.587ZM286.039 140.786L282.458 133.979L280.297 135.115L283.878 141.923L286.039 140.786ZM281.946 135.627L286.954 132.993L285.818 130.832L280.809 133.467L281.946 135.627ZM285.306 132.481L285.997 133.796L288.158 132.659L287.466 131.344L285.306 132.481ZM286.509 132.147L282.963 134.013L284.1 136.173L287.646 134.308L286.509 132.147ZM282.451 135.661L283.168 137.023L285.329 135.887L284.612 134.525L282.451 135.661ZM284.817 137.535L287.584 136.08L286.448 133.919L283.68 135.375L284.817 137.535ZM285.936 135.568L286.625 136.878L288.785 135.741L288.096 134.431L285.936 135.568ZM287.137 135.229L284.369 136.685L285.506 138.846L288.273 137.39L287.137 135.229ZM283.857 138.334L284.651 139.843L286.812 138.707L286.018 137.197L283.857 138.334ZM292.462 128.716L291.894 127.636L290.814 128.204L291.382 129.284L292.462 128.716ZM293.92 127.949L295 127.381L294.432 126.301L293.352 126.869L293.92 127.949ZM297.501 134.757L298.069 135.837L299.149 135.269L298.581 134.188L297.501 134.757ZM296.238 135.421L295.732 136.532L296.277 136.78L296.806 136.501L296.238 135.421ZM290.612 132.859L291.117 131.748L287.87 130.27L289.531 133.428L290.612 132.859ZM292.887 137.184L293.455 138.264L294.535 137.696L293.967 136.616L292.887 137.184ZM291.424 137.953L290.344 138.521L290.912 139.602L291.993 139.033L291.424 137.953ZM287.843 131.146L287.275 130.065L286.195 130.634L286.763 131.714L287.843 131.146ZM289.111 130.479L289.617 129.368L289.072 129.12L288.543 129.399L289.111 130.479ZM294.74 133.045L294.234 134.156L297.482 135.637L295.82 132.477L294.74 133.045ZM293.031 129.796L294.488 129.03L293.352 126.869L291.894 127.636L293.031 129.796ZM292.84 128.518L296.421 135.325L298.581 134.188L295 127.381L292.84 128.518ZM296.933 133.676L295.67 134.341L296.806 136.501L298.069 135.837L296.933 133.676ZM296.744 134.31L291.117 131.748L290.106 133.97L295.732 136.532L296.744 134.31ZM289.531 133.428L291.806 137.752L293.967 136.616L291.692 132.291L289.531 133.428ZM292.318 136.104L290.856 136.873L291.993 139.033L293.455 138.264L292.318 136.104ZM292.505 137.385L288.924 130.577L286.763 131.714L290.344 138.521L292.505 137.385ZM288.412 132.226L289.679 131.559L288.543 129.399L287.275 130.065L288.412 132.226ZM288.605 131.59L294.234 134.156L295.246 131.935L289.617 129.368L288.605 131.59ZM295.82 132.477L293.543 128.148L291.382 129.284L293.66 133.614L295.82 132.477ZM300.021 131.758L298.94 132.327L299.509 133.407L300.589 132.839L300.021 131.758ZM303.667 129.841L304.747 129.272L304.179 128.192L303.098 128.76L303.667 129.841ZM304.356 131.151L304.924 132.231L306.004 131.663L305.436 130.582L304.356 131.151ZM299.248 133.838L298.168 134.406L298.736 135.486L299.816 134.918L299.248 133.838ZM295.667 127.03L295.098 125.95L294.018 126.518L294.586 127.599L295.667 127.03ZM300.675 124.396L301.755 123.827L301.187 122.747L300.107 123.315L300.675 124.396ZM301.367 125.711L301.935 126.791L303.015 126.223L302.447 125.142L301.367 125.711ZM297.821 127.576L297.252 126.496L296.172 127.064L296.74 128.144L297.821 127.576ZM298.537 128.939L297.457 129.507L298.025 130.587L299.106 130.019L298.537 128.939ZM301.305 127.483L302.385 126.914L301.817 125.834L300.737 126.402L301.305 127.483ZM301.994 128.793L302.562 129.873L303.643 129.305L303.074 128.225L301.994 128.793ZM299.227 130.249L298.658 129.169L297.578 129.737L298.146 130.817L299.227 130.249ZM300.589 132.839L304.235 130.921L303.098 128.76L299.452 130.678L300.589 132.839ZM302.586 130.409L303.276 131.719L305.436 130.582L304.747 129.272L302.586 130.409ZM303.787 130.07L298.68 132.758L299.816 134.918L304.924 132.231L303.787 130.07ZM300.328 133.269L296.747 126.462L294.586 127.599L298.168 134.406L300.328 133.269ZM296.235 128.111L301.243 125.476L300.107 123.315L295.098 125.95L296.235 128.111ZM299.595 124.964L300.287 126.279L302.447 125.142L301.755 123.827L299.595 124.964ZM300.799 124.63L297.252 126.496L298.389 128.656L301.935 126.791L300.799 124.63ZM296.74 128.144L297.457 129.507L299.618 128.37L298.901 127.008L296.74 128.144ZM299.106 130.019L301.873 128.563L300.737 126.402L297.969 127.858L299.106 130.019ZM300.225 128.051L300.914 129.361L303.074 128.225L302.385 126.914L300.225 128.051ZM301.426 127.713L298.658 129.169L299.795 131.329L302.562 129.873L301.426 127.713ZM298.146 130.817L298.94 132.327L301.101 131.19L300.307 129.681L298.146 130.817ZM302.132 123.629L301.564 122.549L300.484 123.117L301.052 124.197L302.132 123.629ZM307.141 120.994L308.221 120.426L307.653 119.346L306.572 119.914L307.141 120.994ZM307.832 122.309L308.401 123.39L309.481 122.821L308.913 121.741L307.832 122.309ZM304.286 124.175L303.718 123.095L302.638 123.663L303.206 124.743L304.286 124.175ZM305.078 125.68L303.998 126.248L304.566 127.328L305.646 126.76L305.078 125.68ZM307.846 124.224L308.926 123.656L308.358 122.575L307.277 123.144L307.846 124.224ZM308.537 125.539L309.106 126.619L310.186 126.051L309.618 124.971L308.537 125.539ZM305.77 126.995L305.201 125.914L304.121 126.483L304.689 127.563L305.77 126.995ZM307.176 129.667L307.744 130.748L308.824 130.179L308.256 129.099L307.176 129.667ZM305.713 130.437L304.633 131.005L305.201 132.085L306.282 131.517L305.713 130.437ZM302.701 124.709L307.709 122.075L306.572 119.914L301.564 122.549L302.701 124.709ZM306.06 121.563L306.752 122.878L308.913 121.741L308.221 120.426L306.06 121.563ZM307.264 121.229L303.718 123.095L304.855 125.255L308.401 123.39L307.264 121.229ZM303.206 124.743L303.998 126.248L306.158 125.111L305.367 123.607L303.206 124.743ZM305.646 126.76L308.414 125.304L307.277 123.144L304.51 124.599L305.646 126.76ZM306.765 124.792L307.457 126.107L309.618 124.971L308.926 123.656L306.765 124.792ZM307.969 124.459L305.201 125.914L306.338 128.075L309.106 126.619L307.969 124.459ZM304.689 127.563L306.095 130.236L308.256 129.099L306.85 126.426L304.689 127.563ZM306.607 128.587L305.145 129.356L306.282 131.517L307.744 130.748L306.607 128.587ZM306.794 129.868L303.213 123.061L301.052 124.197L304.633 131.005L306.794 129.868ZM311.98 127.14L310.899 127.708L311.468 128.789L312.548 128.22L311.98 127.14ZM308.399 120.333L307.83 119.252L306.75 119.821L307.318 120.901L308.399 120.333ZM309.861 119.564L310.941 118.995L310.373 117.915L309.293 118.483L309.861 119.564ZM313.442 126.371L314.01 127.451L315.09 126.883L314.522 125.803L313.442 126.371ZM313.06 126.572L309.479 119.764L307.318 120.901L310.899 127.708L313.06 126.572ZM308.967 121.413L310.429 120.644L309.293 118.483L307.83 119.252L308.967 121.413ZM308.781 120.132L312.362 126.939L314.522 125.803L310.941 118.995L308.781 120.132ZM312.874 125.291L311.411 126.06L312.548 128.22L314.01 127.451L312.874 125.291ZM310.929 119.002L310.361 117.921L309.28 118.49L309.849 119.57L310.929 119.002ZM316.274 116.19L317.355 115.622L316.786 114.541L315.706 115.11L316.274 116.19ZM316.966 117.505L317.534 118.585L318.615 118.017L318.046 116.937L316.966 117.505ZM315.024 118.526L314.456 117.446L313.376 118.014L313.944 119.094L315.024 118.526ZM317.914 124.019L318.482 125.099L319.562 124.531L318.994 123.45L317.914 124.019ZM316.456 124.785L315.376 125.354L315.944 126.434L317.025 125.866L316.456 124.785ZM313.567 119.293L314.647 118.725L314.079 117.644L312.999 118.213L313.567 119.293ZM311.621 120.317L310.54 120.885L311.109 121.965L312.189 121.397L311.621 120.317ZM311.497 120.082L316.843 117.27L315.706 115.11L310.361 117.921L311.497 120.082ZM315.194 116.758L315.886 118.073L318.046 116.937L317.355 115.622L315.194 116.758ZM316.398 116.425L314.456 117.446L315.593 119.606L317.534 118.585L316.398 116.425ZM313.944 119.094L316.833 124.587L318.994 123.45L316.105 117.958L313.944 119.094ZM317.345 122.938L315.888 123.705L317.025 125.866L318.482 125.099L317.345 122.938ZM317.537 124.217L314.647 118.725L312.487 119.861L315.376 125.354L317.537 124.217ZM312.999 118.213L311.052 119.236L312.189 121.397L314.135 120.373L312.999 118.213ZM312.701 119.748L312.009 118.433L309.849 119.57L310.54 120.885L312.701 119.748Z" fill="black"/>
<defs>
<filter id="filter0_f_2512:30969" x="223.379" y="390.591" width="66.5221" height="66.5225" filterUnits="userSpaceOnUse" color-interpolation-filters="sRGB">
<feFlood flood-opacity="0" result="BackgroundImageFix"/>
<feBlend mode="normal" in="SourceGraphic" in2="BackgroundImageFix" result="shape"/>
<feGaussianBlur stdDeviation="12.206" result="effect1_foregroundBlur_2512:30969"/>
</filter>
<filter id="filter1_f_2512:30969" x="223.379" y="120.839" width="66.5221" height="66.5226" filterUnits="userSpaceOnUse" color-interpolation-filters="sRGB">
<feFlood flood-opacity="0" result="BackgroundImageFix"/>
<feBlend mode="normal" in="SourceGraphic" in2="BackgroundImageFix" result="shape"/>
<feGaussianBlur stdDeviation="12.206" result="effect1_foregroundBlur_2512:30969"/>
</filter>
<filter id="filter2_f_2512:30969" x="-21.3514" y="255.104" width="66.5221" height="66.5225" filterUnits="userSpaceOnUse" color-interpolation-filters="sRGB">
<feFlood flood-opacity="0" result="BackgroundImageFix"/>
<feBlend mode="normal" in="SourceGraphic" in2="BackgroundImageFix" result="shape"/>
<feGaussianBlur stdDeviation="12.206" result="effect1_foregroundBlur_2512:30969"/>
</filter>
<linearGradient id="paint0_linear_2512:30969" x1="192.864" y1="255.105" x2="296.004" y2="242.289" gradientUnits="userSpaceOnUse">
<stop offset="0.0812183" stop-color="#130707"/>
<stop offset="1" stop-color="#D51414"/>
</linearGradient>
<linearGradient id="paint1_linear_2512:30969" x1="-2.43172" y1="280.127" x2="417.143" y2="361.682" gradientUnits="userSpaceOnUse">
<stop stop-color="#805050"/>
<stop offset="0.936795" stop-color="#D80101"/>
</linearGradient>
<linearGradient id="paint2_linear_2512:30969" x1="117.495" y1="292.655" x2="247.486" y2="238.932" gradientUnits="userSpaceOnUse">
<stop offset="0.0812183"/>
<stop offset="1" stop-color="#B22626"/>
</linearGradient>
<linearGradient id="paint3_linear_2512:30969" x1="64.7064" y1="290.535" x2="111.053" y2="271.187" gradientUnits="userSpaceOnUse">
<stop offset="0.0812183" stop-color="#0D0808"/>
<stop offset="1" stop-color="#513535"/>
</linearGradient>
<radialGradient id="paint4_radial_2512:30969" cx="0" cy="0" r="1" gradientUnits="userSpaceOnUse" gradientTransform="translate(192.881 236.812) scale(26.2589)">
<stop stop-color="#CACACA"/>
<stop offset="0.0340968" stop-color="#BCBCBC"/>
<stop offset="0.165" stop-color="#8A8A8A"/>
<stop offset="0.2991" stop-color="#606060"/>
<stop offset="0.4342" stop-color="#3D3D3D"/>
<stop offset="0.5707" stop-color="#222222"/>
<stop offset="0.7091" stop-color="#0F0F0F"/>
<stop offset="0.8507" stop-color="#040404"/>
<stop offset="1"/>
</radialGradient>
<radialGradient id="paint5_radial_2512:30969" cx="0" cy="0" r="1" gradientUnits="userSpaceOnUse" gradientTransform="translate(109.269 289.908) scale(26.2589)">
<stop stop-color="#CACACA"/>
<stop offset="0.0340968" stop-color="#BCBCBC"/>
<stop offset="0.165" stop-color="#8A8A8A"/>
<stop offset="0.2991" stop-color="#606060"/>
<stop offset="0.4342" stop-color="#3D3D3D"/>
<stop offset="0.5707" stop-color="#222222"/>
<stop offset="0.7091" stop-color="#0F0F0F"/>
<stop offset="0.8507" stop-color="#040404"/>
<stop offset="1"/>
</radialGradient>
<radialGradient id="paint6_radial_2512:30969" cx="0" cy="0" r="1" gradientUnits="userSpaceOnUse" gradientTransform="translate(278.321 368.637) scale(26.2589)">
<stop stop-color="#CACACA"/>
<stop offset="0.0340968" stop-color="#BCBCBC"/>
<stop offset="0.165" stop-color="#8A8A8A"/>
<stop offset="0.2991" stop-color="#606060"/>
<stop offset="0.4342" stop-color="#3D3D3D"/>
<stop offset="0.5707" stop-color="#222222"/>
<stop offset="0.7091" stop-color="#0F0F0F"/>
<stop offset="0.8507" stop-color="#040404"/>
<stop offset="1"/>
</radialGradient>
<linearGradient id="paint7_linear_2512:30969" x1="243.33" y1="434.743" x2="256.883" y2="416.834" gradientUnits="userSpaceOnUse">
<stop offset="0.0812183" stop-color="#410909"/>
<stop offset="1" stop-color="#FF1515"/>
</linearGradient>
<linearGradient id="paint8_linear_2512:30969" x1="243.33" y1="164.991" x2="256.883" y2="147.082" gradientUnits="userSpaceOnUse">
<stop offset="0.0812183" stop-color="#410909"/>
<stop offset="1" stop-color="#FF1515"/>
</linearGradient>
<linearGradient id="paint9_linear_2512:30969" x1="-1.40079" y1="299.256" x2="12.152" y2="281.347" gradientUnits="userSpaceOnUse">
<stop offset="0.0812183" stop-color="#410909"/>
<stop offset="1" stop-color="#FF1515"/>
</linearGradient>
<clipPath id="clip0_2512:30969">
<rect width="52.4857" height="52.4857" fill="white" transform="translate(166.622 210.553)"/>
</clipPath>
<clipPath id="clip1_2512:30969">
<rect width="52.4857" height="52.4857" fill="white" transform="translate(83.0098 263.649)"/>
</clipPath>
<clipPath id="clip2_2512:30969">
<rect width="52.4857" height="52.4857" fill="white" transform="translate(252.062 342.378)"/>
</clipPath>
</defs>
</svg>
